<svg width="500" height="500" viewBox="0 0 34 35" fill="none" xmlns="http://www.w3.org/2000/svg">
<g clip-path="url(#clip0_455_61)">
<path d="M12.3669 8.29345C12.749 9.87483 13.4117 11.2146 14.5975 12.2592C14.4661 12.0879 14.3285 11.9201 14.204 11.7435C13.4073 10.6093 12.9813 9.33189 12.7569 7.97629C12.3853 5.72371 12.4396 3.48958 13.0506 1.28268C13.1289 1.00101 13.231 0.726511 13.3556 0.462116C13.6317 -0.122115 13.856 -0.1432 14.2636 0.347027C15.0673 1.31782 15.864 2.29036 16.6818 3.24183C17.4461 4.12564 18.2428 4.98046 19.0237 5.84671C20.8144 4.84868 22.5682 3.86559 24.3308 2.89919C24.5446 2.78235 24.8102 2.76126 25.0521 2.69537C25.0653 2.95894 25.1564 3.25149 25.0811 3.48606C24.6104 4.95938 24.1029 6.42039 23.6051 7.88493C23.5122 8.15991 23.414 8.43138 23.3421 8.64047C23.9425 9.20538 24.5639 9.69472 25.074 10.2886C26.2064 11.5976 26.7288 13.1685 26.543 14.879C26.4291 15.9333 26.8638 16.5105 27.678 17.0051C28.8499 17.7176 29.999 18.4687 31.148 19.219C31.6739 19.5643 31.7887 19.899 31.3549 20.3365C30.3864 21.3143 29.4214 22.3211 27.9042 22.4617C26.6771 22.575 25.5245 22.3598 24.3886 21.953C23.6068 21.6728 22.8276 21.3864 22.0555 21.0842C21.6716 20.9348 21.3867 21.0068 21.0703 21.2827C19.2201 22.8966 17.8352 24.8057 17.2348 27.2243C16.9719 28.2847 16.8974 29.3574 17.1472 30.4529C17.3926 29.0886 17.7406 27.7664 18.6074 26.5645C18.6731 27.2506 18.7047 27.87 18.7958 28.4806C19.0921 30.4468 19.8222 32.2803 20.5488 34.1156C21.3034 36.0308 22.073 37.9434 22.477 39.9755C22.8189 41.7194 22.9425 43.458 22.2518 45.1589C21.5147 46.9722 20.1982 48.2557 18.5276 49.2063C18.2016 49.3917 17.8624 49.5525 17.418 49.7826C17.6468 49.4075 17.8195 49.1474 17.9702 48.8751C19.5409 46.0392 19.6285 43.089 18.6355 40.058C18.0132 38.1586 17.0762 36.4103 16.0832 34.6875C15.4828 33.6587 14.8999 32.6247 14.637 31.4518C14.1426 29.2247 14.5923 27.1285 15.573 25.1175C16.2094 23.8286 17.0309 22.6401 18.0114 21.5902C16.609 22.1235 15.4074 22.9607 14.3591 24.0194C13.302 25.0786 12.498 26.3642 12.0075 27.7795L11.8542 27.7637C11.8542 27.2717 11.8261 26.778 11.8621 26.2895C11.898 25.8011 12.0005 25.3099 12.0777 24.796C12.0356 24.8153 11.99 24.8206 11.9795 24.8434C10.3685 27.4791 9.81636 30.2509 10.9619 33.2142C11.4878 34.5768 12.4099 35.6741 13.4441 36.6844C14.502 37.7141 15.5792 38.7279 16.3479 40.0115C17.6547 42.192 18.0132 44.4516 16.8878 46.8211C16.5 47.6598 15.9176 48.3933 15.1892 48.9603C15.2768 48.4253 15.3811 47.9122 15.4416 47.393C15.573 46.2816 15.1856 45.3557 14.3898 44.5878C13.0909 43.335 11.4974 42.5839 9.84879 41.9381C8.07042 41.2423 6.27102 40.5843 4.67759 39.5054C1.68618 37.4804 0.105016 34.6656 -0.000161022 31.0372C-0.00417987 30.9198 0.00109552 30.8023 0.0156155 30.6857C0.0412122 30.4993 0.0798727 30.315 0.13131 30.134C0.386365 32.8083 2.09023 34.3914 4.24286 35.6126C4.94404 36.0115 5.7127 36.3005 6.4507 36.6405C6.47261 36.6036 6.4954 36.5676 6.51818 36.5307C6.25524 36.3321 5.98266 36.1389 5.72147 35.9333C3.78358 34.4108 2.19103 32.608 1.28212 30.2799C0.339035 27.8656 0.38987 25.3969 1.11559 22.9616C1.62745 21.2458 2.33302 19.588 2.95619 17.9047C3.47682 16.4946 4.00796 15.0934 4.2262 13.5875C4.42078 12.232 4.03688 11.0776 3.13762 10.0734C3.07977 10.0084 3.02193 9.94247 2.96232 9.8757C2.96232 9.87043 2.96233 9.85462 2.97547 9.81772C4.20254 10.4617 4.88619 11.4922 5.15264 12.8206C5.48657 14.481 5.24028 16.1107 4.85726 17.7281C4.50667 19.1795 4.17712 20.6273 4.1666 22.1358C4.1482 24.6835 4.99662 26.8799 6.84511 28.8127C5.90903 23.7066 7.371 19.6381 11.6228 16.7125C9.71995 16.572 7.18255 19.1399 6.15445 22.17C6.06066 21.5551 5.9029 20.9401 5.88449 20.3251C5.78896 17.0376 6.95029 14.1753 8.92148 11.6091C9.90249 10.3414 11.0633 9.22432 12.3669 8.29345ZM16.2234 17.2458L16.127 17.4637C17.3497 17.8274 18.4935 17.2484 18.7985 16.2539C18.3331 16.5254 17.7949 16.8909 17.2112 17.1553C16.9211 17.2871 16.5468 17.2317 16.2111 17.2607L17.3181 16.5711C16.3768 16.8417 15.4609 17.0754 14.3653 16.8909C14.722 16.4305 15.0314 16.0334 15.3802 15.5845C14.5502 15.9825 13.9279 16.4938 13.5992 17.3688C13.7684 17.3969 13.8964 17.4452 14.0208 17.4356C14.7553 17.3793 15.4907 17.3073 16.2251 17.2458H16.2234ZM15.8053 11.9174L15.7799 11.9605C15.826 12.0068 15.8752 12.0499 15.9271 12.0896C17.1454 12.8944 18.4032 13.6288 19.8117 14.0505C20.2455 14.1806 20.583 14.3694 20.8564 14.7534C21.099 15.0648 21.396 15.3295 21.7329 15.5344C22.4446 16.0018 23.2448 16.1257 24.2037 16.0501C23.3483 15.5388 22.8627 14.8597 22.4656 14.098C22.4008 13.9732 22.2167 13.8766 22.0686 13.8344C20.6391 13.4531 19.1973 13.114 17.7739 12.7029C17.099 12.5113 16.4618 12.1845 15.8071 11.9174H15.8053ZM15.3934 9.60072C15.6221 11.0503 17.5486 12.3383 19.3209 12.2082C17.7704 11.6512 16.2725 11.0995 15.3951 9.60072H15.3934Z" fill="#0075FF"/>
<path d="M30.0157 26.9555C28.5888 27.4167 27.1689 27.8586 25.9111 28.6853C24.2844 29.7545 23.1941 31.2023 22.9145 33.1659C22.8268 33.7633 22.9013 34.3835 22.9933 35.0012C23.1292 34.6032 23.2449 34.1973 23.4062 33.8099C23.9093 32.594 24.699 31.6583 25.912 31.0627C27.615 30.2263 29.2987 29.3433 30.7642 28.1134C32.4067 26.7358 33.4234 25.0306 33.5189 22.7218C33.8599 23.3754 33.9423 23.9834 33.987 24.5939C34.1772 27.2296 32.958 29.2397 31.0946 30.937C30.7931 31.1972 30.4422 31.3935 30.063 31.5142C29.2545 31.7722 28.5116 32.2032 27.8858 32.7776C29.2803 32.1863 30.6774 31.6355 32.2419 32.0168C30.9289 32.2425 29.8877 32.9243 29.0174 33.8828C28.552 34.3872 28.1265 34.9271 27.7447 35.4975C26.7639 36.9955 25.8244 38.5189 24.9137 39.9605C27.5887 39.3684 30.2926 36.3585 30.5529 33.6139C30.9158 35.8261 30.6169 37.9188 29.3092 39.7866C27.8963 41.8072 25.8524 42.8808 23.5017 43.5986C23.8908 40.2944 22.6761 37.4312 21.5366 34.5496C21.3701 34.1288 21.2255 33.6948 21.0108 33.2977C20.761 32.8312 20.7829 32.3954 20.9643 31.9192C21.5875 30.2799 22.6129 29.006 24.2073 28.2294C26.0505 27.3473 28.0339 27.14 30.0157 26.9555Z" fill="#0075FF"/>
<path d="M6.17128 15.3156C5.89081 13.7518 6.15638 12.3954 7.01182 11.1496C7.42464 10.5495 7.80591 9.92489 8.16 9.28795C9.00317 7.77071 8.76477 6.33077 7.75507 4.99188C7.36241 4.47002 6.89613 4.00439 6.47717 3.49835C7.77172 4.47002 9.11536 5.40918 9.60268 7.0872C9.92698 8.20383 9.6281 9.22557 8.96899 10.1516C8.60613 10.6629 8.22048 11.1592 7.85411 11.6679C7.05381 12.7578 6.48141 13.9985 6.17128 15.3156Z" fill="#0075FF"/>
</g>
<defs>
<clipPath id="clip0_455_61">
<rect width="34.0081" height="49.78" fill="white"/>
</clipPath>
</defs>
</svg>
